<?xml version="1.0" encoding="utf-8"?>
<!-- Generator: Adobe Illustrator 15.1.0, SVG Export Plug-In . SVG Version: 6.00 Build 0)  -->
<!DOCTYPE svg PUBLIC "-//W3C//DTD SVG 1.1//EN" "http://www.w3.org/Graphics/SVG/1.1/DTD/svg11.dtd">
<svg version="1.1" id="Layer_1" xmlns="http://www.w3.org/2000/svg" xmlns:xlink="http://www.w3.org/1999/xlink" x="0px" y="0px"
     width="100.001px" height="80.002px" viewBox="0 0 100.001 80.002" enable-background="new 0 0 100.001 80.002"
     xml:space="preserve">
<path fill="#010101" d="M50.836,0c-4.767,0-7.501,2.5-7.501,2.5s-22.501,19.999-22.5,20v0.084c-0.273-0.046-0.549-0.084-0.834-0.084
    h-15C2.239,22.5,0,24.739,0,27.501v24.167c0,2.763,2.239,5,5.001,5h15c0.285,0,0.561-0.038,0.834-0.084v0.084l22.5,20.834
    c0,0,2.734,2.5,7.501,2.5c4.765,0,6.667-2.237,6.667-5V5C57.503,2.238,55.601,0,50.836,0z M52.502,70.836
    c0,4.115-0.312,4.166-4.167,4.166L29.742,58.334l-7.689-6.666h-1.218H15h-2.5H9.167c-2.762,0-4.166-1.405-4.166-4.167V31.667
    c0-1.035,0.197-1.88,0.589-2.531c0.655-1.086,1.852-1.635,3.577-1.635H12.5h8.335h1.287l6.071-5.137L48.335,5
    c3.855,0,4.167-0.001,4.167,4.167V70.836z"/>
<path fill="#010101" d="M76.344,2.5c0,0-2.639-1.342-3.687,0.431c-1.168,1.986,0.664,3.37,0.664,3.37
    c12.988,5.642,22.386,19.485,21.634,34.463c-0.677,13.49-9.248,25.399-20.729,30.666c0,0-2.562,1.057-1.834,3.246
    c1.018,2.599,4.12,1.041,4.12,1.041c13.201-5.988,22.66-19.229,23.438-34.703C100.801,24.058,90.958,9.048,76.344,2.5z"/>
<path fill="#010101" d="M87.422,41.22c0.613-12.201-6.351-23.035-16.974-27.554c0,0-2.233-0.991-3.371,0.665
    c-1.664,2.715,0.624,4.203,0.624,4.203c8.997,3.603,15.239,12.214,14.728,22.436c-0.425,8.461-6.535,15.652-13.488,19.397
    c0,0-1.998,0.931-1,3.286c0.934,1.871,3.289,1,3.289,1C79.896,60.175,86.897,51.667,87.422,41.22z"/>
<path fill="#010101" d="M75.733,40.993c0.756-7.029-3.619-13.882-9.994-16.164c0,0-2.709-0.999-3.492,1.3
    c-0.807,3.097,1.3,3.493,1.3,3.493c4.827,1.15,7.761,5.773,7.216,10.836c-0.384,3.551-2.877,6.291-5.865,7.75
    c0.092,0.047-3.397,0.797-2.103,3.965c0.749,2.03,4.054,1.273,4.054,1.273C71.592,51.351,75.138,46.519,75.733,40.993z"/>
</svg>
