<svg xmlns="http://www.w3.org/2000/svg" xmlns:xlink="http://www.w3.org/1999/xlink" version="1.1" id="Your_Icon" x="0px" y="0px" width="100px" height="100px" viewBox="0 0 100 100" enable-background="new 0 0 100 100" xml:space="preserve">
<g>
    <path d="M63.256,50.029c-1.084,0-2.093-0.551-2.679-1.463L49.163,30.808c-0.008-0.012-0.015-0.023-0.023-0.035   c-1.724-2.693-2.636-5.812-2.636-9.023C46.505,12.514,54.019,5,63.256,5c9.236,0,16.75,7.514,16.75,16.75   c0,3.225-0.919,6.359-2.659,9.06L65.935,48.566C65.349,49.478,64.34,50.029,63.256,50.029z M54.541,27.396l8.715,13.559   l8.735-13.59c1.078-1.674,1.647-3.614,1.647-5.614c0-5.725-4.657-10.382-10.382-10.382S52.874,16.026,52.874,21.75   c0,1.999,0.569,3.939,1.645,5.61C54.526,27.373,54.534,27.384,54.541,27.396z"/>
</g>
<g>
    <path d="M63.256,28.641c-3.788,0-6.87-3.082-6.87-6.87s3.082-6.869,6.87-6.869c3.788,0,6.869,3.081,6.869,6.869   S67.044,28.641,63.256,28.641z M63.256,19.148c-1.447,0-2.624,1.177-2.624,2.623c0,1.447,1.177,2.624,2.624,2.624   c1.447,0,2.623-1.177,2.623-2.624C65.879,20.325,64.703,19.148,63.256,19.148z"/>
</g>
<g>
    <path d="M36.233,94.936c-0.085-0.011-0.17-0.032-0.265-0.053l-0.138-0.042C35.957,94.883,36.095,94.915,36.233,94.936z"/>
</g>
<g>
    <path d="M37.846,94.841l-0.127,0.042c-0.095,0.032-0.191,0.053-0.287,0.053C37.57,94.915,37.708,94.883,37.846,94.841z"/>
</g>
<g>
    <path d="M90.336,32.808l-5.329-1.518c-1.688-0.488-3.45,0.499-3.938,2.187c-0.478,1.688,0.499,3.45,2.197,3.938l3.015,0.86v49.327   l-21.007-5.987V58.835c0-1.168-0.955-2.123-2.123-2.123c-1.178,0-2.123,0.955-2.123,2.123v22.779l-22.068,6.295V38.582l4.469-1.284   c1.688-0.478,2.664-2.24,2.187-3.927c-0.488-1.698-2.24-2.675-3.938-2.197l-4.84,1.38l-25.433-7.25   c-0.955-0.276-1.996-0.085-2.792,0.52S7.35,27.362,7.35,28.36v55.951c0,1.422,0.945,2.675,2.303,3.068l26.176,7.462   c0.127,0.042,0.265,0.074,0.403,0.095C36.424,94.979,36.636,95,36.838,95c0.191,0,0.393-0.011,0.594-0.064   c0.138-0.021,0.276-0.053,0.414-0.095l25.295-7.218h0.011l25.433,7.261C88.872,94.958,89.169,95,89.466,95   c0.679,0,1.359-0.223,1.911-0.637c0.796-0.605,1.274-1.55,1.274-2.548V35.865C92.65,34.442,91.706,33.2,90.336,32.808z    M34.715,87.899l-20.996-5.987V32.585l20.996,5.987V87.899z"/>
</g>
</svg>