<svg xmlns="http://www.w3.org/2000/svg" xmlns:xlink="http://www.w3.org/1999/xlink" version="1.1" id="Layer_1" x="0px" y="0px" width="77.2727272727px" height="100px" viewBox="0 0 612 792" enable-background="new 0 0 612 792" xml:space="preserve">
<path d="M344.936,445.004h-72.404c-3.373,0-5.575-2.368-5.575-5.241v-55.749c0-3.456,2.12-6.075,5.575-6.075h44.476v11.058h-38.999  v45.023h60.999V416.88l12.002-0.005v22.888C351.009,442.636,348.224,445.004,344.936,445.004L344.936,445.004z M283.508,429.03  l23.256-22.339l10.453,9.783l11.233-14.775l5.512,10.541L334,429.03H283.508L283.508,429.03z M295.02,406.528  c-3.175,0-5.75-2.575-5.75-5.752c0-3.175,2.575-5.75,5.75-5.75c3.177,0,5.752,2.575,5.752,5.75  C300.772,403.953,298.197,406.528,295.02,406.528L295.02,406.528z M351.041,384.014v22.034h-12.067l-0.015-22.034h-15.861  l21.951-21.952L367,384.014H351.041L351.041,384.014z"/>
</svg>