<svg xmlns="http://www.w3.org/2000/svg" xmlns:xlink="http://www.w3.org/1999/xlink" version="1.1" id="Layer_1" x="0px" y="0px" width="49.245px" height="60.103px" viewBox="0 0 49.245 60.103" enable-background="new 0 0 49.245 60.103" xml:space="preserve">
<path fill-rule="evenodd" clip-rule="evenodd" d="M43.567,60.103l2.405-2.405c-3.232-3.231-5.231-7.696-5.231-12.627  c0-2.328,0.446-4.553,1.259-6.595c4.451-4.046,7.245-9.88,7.245-16.365C49.245,9.901,39.343,0,27.134,0S5.024,9.901,5.024,22.11  c0,2.034,0.275,4.003,0.79,5.874L0,42.52h8.426v12.756c2.843,2.136,6.376,3.401,10.205,3.401c8.447,0,15.458-6.162,16.782-14.235  c-1.197,0.443-2.439,0.793-3.719,1.041c-1.649,5.658-6.874,9.793-13.063,9.793c-2.478,0-4.802-0.663-6.803-1.821V39.118H5.024  l4.393-10.984c-0.643-1.89-0.992-3.916-0.992-6.023c0-10.331,8.378-18.709,18.708-18.709c10.331,0,18.709,8.378,18.709,18.709  c0,5.747-2.594,10.889-6.673,14.32c-1.177,2.641-1.831,5.563-1.831,8.64C37.339,50.94,39.719,56.256,43.567,60.103L43.567,60.103z   M11.828,25.512h7.653v6.803H16.08l3.401,5.953H16.93l-5.102-5.953V25.512L11.828,25.512z M39.041,24.661h-9.354v8.504h4.252  l-4.252,8.504h2.551l6.804-8.504V24.661L39.041,24.661z"/>
</svg>