<svg xmlns="http://www.w3.org/2000/svg" xmlns:xlink="http://www.w3.org/1999/xlink" version="1.1" id="Layer_1" x="0px" y="0px" width="100px" height="100px" viewBox="0 0 100 100" enable-background="new 0 0 100 100" xml:space="preserve">
<g>
    <path d="M82.112,20.508H17.888c-4.418,0-8,3.582-8,8v42.984c0,4.418,3.582,8,8,8h64.225c4.418,0,8-3.582,8-8V28.508   C90.112,24.089,86.53,20.508,82.112,20.508z M82.112,71.492H17.888V28.508h64.225V71.492z"/>
    <path d="M37.627,66.596c0.619,0.357,1.309,0.536,2,0.536c0.69,0,1.381-0.179,2-0.536l22.746-13.132c1.238-0.714,2-2.035,2-3.464   c0-1.429-0.762-2.75-2-3.464L41.627,33.404c-1.237-0.715-2.763-0.715-4,0c-1.238,0.714-2,2.035-2,3.464v26.264   C35.627,64.561,36.389,65.882,37.627,66.596z M43.627,43.796L54.373,50l-10.746,6.204V43.796z"/>
</g>
</svg>