<?xml version="1.0" encoding="UTF-8" standalone="no"?>
<!DOCTYPE svg PUBLIC "-//W3C//DTD SVG 1.1//EN" "http://www.w3.org/Graphics/SVG/1.1/DTD/svg11.dtd">
<svg width="100%" height="100%" viewBox="0 0 3256 339" version="1.1" xmlns="http://www.w3.org/2000/svg" xmlns:xlink="http://www.w3.org/1999/xlink" xml:space="preserve" style="fill-rule:evenodd;clip-rule:evenodd;stroke-linejoin:round;stroke-miterlimit:1.41421;">
    <g transform="matrix(1,0,0,1,-30.8425,-1106.16)">
        <path d="M543.399,1444.71C612.043,1444.71 656.872,1372.33 656.872,1275.2C656.872,1178.07 612.043,1106.16 543.399,1106.16C475.221,1106.16 430.392,1178.54 430.392,1275.67C430.392,1372.8 475.221,1444.71 543.399,1444.71ZM1379.27,1444.71C1447.92,1444.71 1492.75,1372.33 1492.75,1275.2C1492.75,1178.07 1447.92,1106.16 1379.27,1106.16C1311.09,1106.16 1266.27,1178.54 1266.27,1275.67C1266.27,1372.8 1311.09,1444.71 1379.27,1444.71ZM2073.19,1444.71C2141.83,1444.71 2186.66,1372.33 2186.66,1275.2C2186.66,1178.07 2141.83,1106.16 2073.19,1106.16C2005.01,1106.16 1960.18,1178.54 1960.18,1275.67C1960.18,1372.8 2005.01,1444.71 2073.19,1444.71ZM765.675,1112.7L765.675,1118.77C744.195,1120.64 742.794,1129.51 748.398,1157.53L791.826,1379.34L793.227,1379.34L831.985,1235.04L819.844,1167.33C811.905,1128.11 807.236,1122.97 784.821,1118.77L784.821,1112.7L902.03,1112.7L902.03,1118.77C874.012,1120.64 872.611,1128.11 877.748,1157.53L916.506,1377.93L917.907,1377.93L955.264,1195.82C967.406,1135.58 961.802,1128.11 931.916,1118.77L931.916,1112.7L1005.7,1112.7L1005.7,1118.77C1007.53,1118.86 1009.25,1119.01 1010.88,1119.2C986.746,1127.09 979.335,1137.98 967.873,1192.08L916.039,1442.38L873.545,1442.38L836.655,1260.26L789.024,1442.38L746.063,1442.38L689.56,1167.33C682.088,1129.98 676.018,1123.44 651.268,1118.77L651.268,1112.7L765.675,1112.7ZM2324.41,1112.7C2395.86,1112.7 2418.74,1150.99 2418.74,1191.62C2418.74,1228.04 2401.46,1264.46 2347.3,1274.74L2347.3,1276.14C2397.26,1280.81 2408.94,1309.29 2415.01,1360.66L2417.34,1379.8C2422.01,1424.63 2424.81,1428.84 2450.5,1429.3L2450.5,1432.1C2477.11,1430.7 2481.32,1419.03 2481.32,1398.95L2481.32,1151.92C2481.32,1131.84 2477.11,1120.17 2450.5,1118.77L2450.5,1112.7L2570.97,1112.7L2570.97,1118.77C2544.36,1120.17 2540.62,1131.84 2540.62,1151.92L2540.62,1398.95C2540.62,1419.03 2544.36,1430.7 2570.97,1432.1L2570.97,1438.17L2450.5,1438.17L2450.5,1434.44C2437.42,1438.64 2420.14,1440.98 2409.87,1440.98C2368.78,1440.98 2358.5,1425.1 2355.7,1384.47L2351.97,1336.38C2348.7,1289.68 2342.63,1279.87 2305.27,1279.87L2294.53,1279.87L2294.53,1398.48C2294.53,1419.5 2298.26,1430.7 2324.88,1432.1L2324.88,1438.17L2204.4,1438.17L2204.4,1432.1C2231.02,1430.7 2235.22,1419.03 2235.22,1398.95L2235.22,1151.92C2235.22,1131.84 2231.02,1120.17 2204.4,1118.77L2204.4,1112.7L2324.41,1112.7ZM1842.97,1333.57L1844.37,1333.57L1844.37,1195.35C1844.37,1146.32 1838.77,1126.71 1805.61,1118.77L1805.61,1112.7L1888.73,1112.7L1888.73,1118.77C1858.38,1126.71 1856.05,1146.32 1856.05,1195.35L1856.05,1439.11L1831.76,1439.11L1693.07,1177.14L1691.21,1177.14L1691.21,1355.52C1691.21,1404.55 1694.94,1424.16 1727.63,1432.1L1727.63,1438.17L1644.04,1438.17L1644.04,1432.1C1675.8,1424.16 1680,1404.55 1680,1355.52L1680,1177.14C1680,1135.11 1671.59,1121.57 1644.04,1118.77L1644.04,1112.7L1726.23,1112.7L1842.97,1333.57ZM3011.79,1333.57L3013.19,1333.57L3013.19,1195.35C3013.19,1146.32 3007.59,1126.71 2974.43,1118.77L2974.43,1112.7L3057.55,1112.7L3057.55,1118.77C3027.2,1126.71 3024.87,1146.32 3024.87,1195.35L3024.87,1439.11L3000.58,1439.11L2861.89,1177.14L2860.03,1177.14L2860.03,1355.52C2860.03,1404.55 2863.76,1424.16 2896.45,1432.1L2896.45,1438.17L2812.86,1438.17L2812.86,1432.1C2844.62,1424.16 2848.82,1404.55 2848.82,1355.52L2848.82,1177.14C2848.82,1135.11 2840.41,1121.57 2812.86,1118.77L2812.86,1112.7L2895.05,1112.7L3011.79,1333.57ZM3283.1,1112.7L3285.9,1223.37L3277.96,1223.84C3248.55,1146.32 3235,1122.04 3211.19,1122.04L3206.05,1122.04L3206.05,1398.95C3206.05,1419.03 3211.65,1430.7 3241.54,1432.1L3241.54,1438.17L3112.19,1438.17L3112.19,1432.1C3142.08,1430.7 3146.74,1419.03 3146.74,1398.95L3146.74,1122.04L3142.08,1122.04C3119.19,1122.04 3104.72,1145.39 3075.3,1223.84L3066.89,1223.37L3070.16,1112.7L3283.1,1112.7ZM2786.25,1112.7L2788.58,1219.17L2780.18,1219.63C2755.43,1149.59 2742.82,1122.04 2699.86,1122.04L2675.58,1122.04L2675.58,1267.73L2683.05,1267.73C2705.93,1267.73 2718.07,1255.59 2730.21,1202.82L2738.15,1202.82L2738.15,1341.51L2730.21,1341.51C2718.07,1288.75 2705.93,1277.07 2683.05,1277.07L2675.58,1277.07L2675.58,1428.84L2697.52,1428.84C2748.42,1428.83 2765.23,1396.15 2787.65,1322.83L2796.05,1323.3L2793.72,1438.17L2585.45,1438.17L2585.45,1432.1C2612.07,1430.7 2616.27,1419.03 2616.27,1398.95L2616.27,1151.92C2616.27,1131.84 2612.07,1120.17 2585.45,1118.77L2585.45,1112.7L2786.25,1112.7ZM302.91,1112.7C378.092,1112.7 397.705,1154.26 397.705,1187.88C397.705,1224.3 369.687,1258.86 326.259,1264.93L326.259,1266.33C377.625,1271.47 405.643,1301.82 405.643,1345.71C405.643,1387.74 381.828,1438.17 304.778,1438.17L184.767,1438.17L184.767,1432.1C211.384,1430.7 215.587,1419.03 215.587,1398.95L215.587,1151.92C215.587,1131.84 211.384,1120.17 184.767,1118.77L184.767,1112.7L302.91,1112.7ZM1109.83,1112.7C1199.96,1112.7 1243.38,1179.01 1243.38,1272.4C1243.38,1360.19 1205.56,1438.17 1114.5,1438.17L1005.7,1438.17L1005.7,1432.1C1032.31,1430.7 1036.52,1419.03 1036.52,1398.95L1036.52,1151.92C1036.52,1133.23 1032.87,1121.82 1010.88,1119.2C1011.33,1119.06 1011.78,1118.91 1012.24,1118.77L1012.24,1112.7L1109.83,1112.7ZM1634.24,1112.7L1634.24,1118.77C1607.62,1120.17 1603.88,1131.84 1603.88,1151.92L1603.88,1398.95C1603.88,1419.03 1607.62,1430.7 1634.24,1432.1L1634.24,1438.17L1513.76,1438.17L1513.76,1432.1C1540.38,1430.7 1544.58,1419.03 1544.58,1398.95L1544.58,1151.92C1544.58,1131.84 1540.38,1120.17 1513.76,1118.77L1513.76,1112.7L1634.24,1112.7ZM1379.74,1435.84C1341.91,1435.84 1331.64,1390.08 1331.64,1275.2C1331.64,1160.8 1340.05,1115.03 1378.8,1115.03C1417.1,1115.03 1427.37,1160.8 1427.37,1275.67C1427.37,1390.08 1418.96,1435.84 1379.74,1435.84ZM543.866,1435.84C506.041,1435.84 495.768,1390.08 495.768,1275.2C495.768,1160.8 504.173,1115.03 542.932,1115.03C581.223,1115.03 591.496,1160.8 591.496,1275.67C591.496,1390.08 583.091,1435.84 543.866,1435.84ZM2073.65,1435.84C2035.83,1435.84 2025.56,1390.08 2025.56,1275.2C2025.56,1160.8 2033.96,1115.03 2072.72,1115.03C2111.01,1115.03 2121.28,1160.8 2121.28,1275.67C2121.28,1390.08 2112.88,1435.84 2073.65,1435.84ZM1105.16,1428.84C1157,1428.83 1178.01,1398.01 1178.01,1273.33C1178.01,1148.19 1151.86,1122.04 1103.29,1122.04L1095.82,1122.04L1095.82,1428.84L1105.16,1428.84ZM292.17,1428.84C334.197,1428.83 344.937,1402.68 344.937,1349.45C344.937,1299.95 332.796,1270.53 290.769,1270.53L274.892,1270.53L274.892,1428.84L292.17,1428.84ZM156.775,1405.6L154.426,1405.6C153.884,1394.03 149.367,1392.23 141.598,1392.23L34.456,1392.23L34.456,1394.03C34.456,1402.89 43.49,1408.49 73.844,1419.87L73.663,1423.12L30.843,1421.86L30.843,1339.47L73.663,1338.38L73.844,1341.46C43.851,1352.84 34.456,1358.08 34.456,1367.29L34.456,1369.28L141.598,1369.28C149.367,1369.28 153.884,1367.11 154.426,1355.55L156.775,1355.55L156.775,1405.6ZM33.191,1231.06C33.734,1241.36 38.25,1242.81 46.019,1242.81L141.598,1242.81C149.367,1242.81 153.884,1241.36 154.426,1231.06L156.775,1231.06L156.775,1277.32L154.426,1277.32C153.884,1267.2 149.548,1265.93 141.598,1265.93L93.357,1265.93L93.357,1297.55L141.598,1297.55C149.548,1297.55 153.884,1296.29 154.426,1285.99L156.775,1285.99L156.775,1332.42L154.426,1332.42C153.884,1322.12 149.367,1320.5 141.598,1320.5L46.019,1320.5C38.25,1320.5 33.734,1322.12 33.191,1332.42L30.843,1332.42L30.843,1285.99L33.191,1285.99C33.734,1296.29 38.07,1297.55 46.019,1297.55L89.563,1297.55L89.563,1265.93L46.019,1265.93C38.07,1265.93 33.734,1267.2 33.191,1277.32L30.843,1277.32L30.843,1231.06L33.191,1231.06ZM2306.2,1122.04L2294.53,1122.04L2294.53,1270.53L2309.94,1270.53C2348.23,1270.53 2357.57,1239.25 2357.57,1193.02C2357.57,1150.06 2345.43,1122.04 2306.2,1122.04ZM290.302,1261.19C329.06,1261.19 338.867,1232.71 338.867,1192.55C338.867,1144.45 325.325,1122.04 289.368,1122.04L274.892,1122.04L274.892,1261.19L290.302,1261.19ZM153.161,1191.86L153.161,1183.36C153.161,1163.67 140.514,1157.16 112.147,1148.49L112.328,1145.24L156.775,1146.14L156.775,1226.73L154.426,1226.73C153.884,1216.43 149.367,1214.8 141.598,1214.8L46.019,1214.8C38.25,1214.8 33.733,1216.43 33.191,1226.73L30.843,1226.73L30.843,1149.03L72.037,1148.13L72.218,1151.38C45.116,1160.96 34.456,1165.84 34.456,1182.46L34.456,1191.86L90.827,1191.86L90.827,1188.96C90.827,1180.11 86.13,1175.41 65.713,1170.72L65.713,1167.64L119.374,1167.64L119.374,1170.72C98.958,1175.41 94.441,1180.11 94.441,1188.96L94.441,1191.86L153.161,1191.86Z"/>
    </g>
</svg>
