<?xml version="1.0" encoding="UTF-8" standalone="no"?>
<!DOCTYPE svg PUBLIC "-//W3C//DTD SVG 1.1//EN" "http://www.w3.org/Graphics/SVG/1.1/DTD/svg11.dtd">
<svg width="100%" height="100%" viewBox="0 0 593 52" version="1.1" xmlns="http://www.w3.org/2000/svg" xmlns:xlink="http://www.w3.org/1999/xlink" xml:space="preserve" style="fill-rule:evenodd;clip-rule:evenodd;stroke-linejoin:round;stroke-miterlimit:1.41421;">
    <g transform="matrix(1,0,0,1,-5.09794,-2.14771)">
        <g transform="matrix(0.977394,0,0,0.792437,-136.675,-184.289)">
            <g transform="matrix(1.05877,0,0,1.26193,-46.7021,-81.8887)">
                <g transform="matrix(1.27944,0,0,0.23737,172.068,192.269)">
                    <g transform="matrix(0.77772,0,0,4.338,4.0511,-826.544)">
                        <path d="M20.719,296.91L41.412,296.91C54.75,296.91 58.875,289.897 58.875,283.366C58.875,276.835 54.131,272.229 44.85,271.61L44.85,271.404C53.375,270.441 57.362,265.491 57.362,260.266C57.362,254.972 53.994,248.991 41,248.991L20.719,248.991L20.719,249.885C25.531,250.091 26.562,251.535 26.562,254.285L26.562,291.547C26.562,294.366 25.531,295.81 20.719,296.016L20.719,296.91ZM35.981,270.991L35.981,250.297L39.419,250.297C46.087,250.297 47.944,254.216 47.944,260.679C47.944,266.866 46.225,270.991 39.625,270.991L35.981,270.991ZM35.981,295.604L35.981,272.297L39.694,272.297C46.981,272.297 49.181,276.972 49.181,283.641C49.181,291.41 47.669,295.604 40.175,295.604L35.981,295.604Z" style="fill-rule:nonzero;"/>
                    </g>
                    <g transform="matrix(0.77772,0,0,4.338,4.0511,-826.544)">
                        <path d="M84.45,298.01C96.137,298.01 104.662,287.629 104.662,272.847C104.662,258.066 96.344,247.891 84.45,247.891C72.762,247.891 64.237,258.272 64.237,273.054C64.237,287.835 72.556,298.01 84.45,298.01ZM84.656,296.635C77.712,296.635 74.619,289.966 74.619,272.916C74.619,256.004 77.3,249.197 84.244,249.197C91.187,249.197 94.35,255.935 94.35,272.985C94.35,289.897 91.6,296.635 84.656,296.635Z" style="fill-rule:nonzero;"/>
                    </g>
                    <g transform="matrix(0.77772,0,0,4.338,4.0511,-826.544)">
                        <path d="M135.669,264.46L128.519,286.735L128.244,286.735L120.269,255.591C119.306,251.604 119.787,250.16 124.05,249.885L124.05,248.991L104.181,248.991L104.181,249.885C108.512,250.572 109.612,251.741 110.919,256.829L121.919,297.666L126.869,297.666L136.356,267.416L144.812,297.666L149.762,297.666L159.387,260.885C161.519,252.91 163.1,250.916 167.5,249.885L167.5,248.991L153.612,248.991L153.612,249.885C158.562,251.054 159.731,252.772 157.875,260.197L151.069,286.529L150.794,286.529L143.094,255.591C142.062,251.397 142.681,250.16 147.562,249.885L147.562,248.991L127.625,248.991L127.625,249.885C131.406,250.366 132.437,251.535 133.812,256.829L135.669,264.46Z" style="fill-rule:nonzero;"/>
                    </g>
                    <g transform="matrix(0.77772,0,0,4.338,4.0511,-826.544)">
                        <path d="M167.019,296.91L186.819,296.91C202.494,296.91 208.819,285.222 208.819,272.297C208.819,258.685 201.325,248.991 185.994,248.991L167.019,248.991L167.019,249.885C171.831,250.091 172.862,251.535 172.862,254.285L172.862,291.547C172.862,294.366 171.831,295.81 167.019,296.016L167.019,296.91ZM182.281,295.604L182.281,250.297L184.894,250.297C193.9,250.297 198.575,254.629 198.575,272.71C198.575,290.654 194.931,295.604 185.1,295.604L182.281,295.604Z" style="fill-rule:nonzero;"/>
                    </g>
                    <g transform="matrix(0.77772,0,0,4.338,4.0511,-826.544)">
                        <path d="M233.569,298.01C245.256,298.01 253.781,287.629 253.781,272.847C253.781,258.066 245.462,247.891 233.569,247.891C221.881,247.891 213.356,258.272 213.356,273.054C213.356,287.835 221.675,298.01 233.569,298.01ZM233.775,296.635C226.831,296.635 223.737,289.966 223.737,272.916C223.737,256.004 226.419,249.197 233.362,249.197C240.306,249.197 243.469,255.935 243.469,272.985C243.469,289.897 240.719,296.635 233.775,296.635Z" style="fill-rule:nonzero;"/>
                    </g>
                    <g transform="matrix(0.77772,0,0,4.338,4.0511,-826.544)">
                        <path d="M258.044,296.91L279.287,296.91L279.287,296.016C274.337,295.81 273.375,294.366 273.375,291.547L273.375,254.285C273.375,251.535 274.337,250.091 279.287,249.885L279.287,248.991L258.044,248.991L258.044,249.885C262.994,250.091 264.025,251.535 264.025,254.285L264.025,291.547C264.025,294.366 262.994,295.81 258.044,296.016L258.044,296.91Z" style="fill-rule:nonzero;"/>
                    </g>
                    <g transform="matrix(0.77772,0,0,4.338,4.0511,-826.544)">
                        <path d="M316.825,297.391L320.194,297.391L320.194,260.885C320.194,253.872 321.362,250.985 326.794,249.885L326.794,248.991L310.912,248.991L310.912,249.885C316.825,250.847 318.544,253.872 318.544,260.885L318.544,282.472L318.406,282.472L296.544,248.991L282.381,248.991L282.381,249.885C287.4,250.229 289.256,252.979 289.256,258.204L289.256,285.016C289.256,292.029 287.95,294.985 282.381,296.016L282.381,296.91L298.194,296.91L298.194,296.016C292.35,294.985 290.975,292.029 290.975,285.016L290.975,258.066L291.112,258.066L316.825,297.391Z" style="fill-rule:nonzero;"/>
                    </g>
                    <g transform="matrix(0.77772,0,0,4.338,4.0511,-826.544)">
                        <path d="M360.687,298.01C372.375,298.01 380.9,287.629 380.9,272.847C380.9,258.066 372.581,247.891 360.687,247.891C349,247.891 340.475,258.272 340.475,273.054C340.475,287.835 348.794,298.01 360.687,298.01ZM360.894,296.635C353.95,296.635 350.856,289.966 350.856,272.916C350.856,256.004 353.537,249.197 360.481,249.197C367.425,249.197 370.587,255.935 370.587,272.985C370.587,289.897 367.837,296.635 360.894,296.635Z" style="fill-rule:nonzero;"/>
                    </g>
                    <g transform="matrix(0.77772,0,0,4.338,4.0511,-826.544)">
                        <path d="M399.944,272.16L399.944,250.297L402.762,250.297C409.981,250.297 412.181,254.422 412.181,261.022C412.181,268.31 410.531,272.16 403.381,272.16L399.944,272.16ZM399.944,273.466L402.694,273.466C409.362,273.466 410.669,275.322 411.287,282.266L411.837,288.797C412.319,294.779 413.831,297.254 421.119,297.254C422.975,297.254 425.519,297.047 427.787,296.497L427.787,295.672C423.044,295.604 422.287,294.847 421.531,288.797L421.187,284.672C420.294,277.66 418.094,273.329 409.362,272.847L409.362,272.641C418.712,271.129 421.875,266.247 421.875,260.61C421.875,254.491 417.681,248.991 405.237,248.991L384.681,248.991L384.681,249.885C389.494,250.091 390.525,251.535 390.525,254.285L390.525,291.547C390.525,294.366 389.494,295.81 384.681,296.016L384.681,296.91L405.581,296.91L405.581,296.016C401.112,295.81 399.944,294.435 399.944,291.547L399.944,273.466Z" style="fill-rule:nonzero;"/>
                    </g>
                    <g transform="matrix(0.77772,0,0,4.338,4.0511,-826.544)">
                        <path d="M428.337,296.91L449.581,296.91L449.581,296.016C444.631,295.81 443.669,294.366 443.669,291.547L443.669,254.285C443.669,251.535 444.631,250.091 449.581,249.885L449.581,248.991L428.337,248.991L428.337,249.885C433.287,250.091 434.319,251.535 434.319,254.285L434.319,291.547C434.319,294.366 433.287,295.81 428.337,296.016L428.337,296.91Z" style="fill-rule:nonzero;"/>
                    </g>
                    <g transform="matrix(0.77772,0,0,4.338,4.0511,-826.544)">
                        <path d="M453.019,296.91L489.8,296.91L490.144,279.86L488.975,279.722C484.85,291.066 482.031,295.604 473.3,295.604L468.281,295.604L468.281,272.916L470.275,272.916C474.744,272.916 477.219,274.979 479.006,282.404L480.037,282.404L480.037,262.191L479.006,262.191C477.219,269.547 474.744,271.61 470.275,271.61L468.281,271.61L468.281,250.297L473.644,250.297C481,250.297 483.269,254.56 487.531,265.079L488.631,265.01L488.356,248.991L453.019,248.991L453.019,249.885C457.831,250.091 458.862,251.535 458.862,254.285L458.862,291.547C458.862,294.366 457.831,295.81 453.019,296.016L453.019,296.91Z" style="fill-rule:nonzero;"/>
                    </g>
                    <g transform="matrix(0.77772,0,0,4.338,4.0511,-826.544)">
                        <path d="M528.781,297.391L532.15,297.391L532.15,260.885C532.15,253.872 533.319,250.985 538.75,249.885L538.75,248.991L522.869,248.991L522.869,249.885C528.781,250.847 530.5,253.872 530.5,260.885L530.5,282.472L530.362,282.472L508.5,248.991L494.337,248.991L494.337,249.885C499.356,250.229 501.212,252.979 501.212,258.204L501.212,285.016C501.212,292.029 499.906,294.985 494.337,296.016L494.337,296.91L510.15,296.91L510.15,296.016C504.306,294.985 502.931,292.029 502.931,285.016L502.931,258.066L503.069,258.066L528.781,297.391Z" style="fill-rule:nonzero;"/>
                    </g>
                    <g transform="matrix(0.77772,0,0,4.338,4.0511,-826.544)">
                        <path d="M549.131,296.91L571.681,296.91L571.681,296.016C566.456,295.81 565.081,294.366 565.081,291.547L565.081,250.297L566.25,250.297C570.65,250.297 573.744,254.697 578.281,265.147L579.45,265.01L579.037,248.991L541.706,248.991L541.294,265.01L542.462,265.147C547.069,254.56 550.162,250.297 554.494,250.297L555.662,250.297L555.662,291.547C555.662,294.366 554.356,295.81 549.131,296.016L549.131,296.91Z" style="fill-rule:nonzero;"/>
                    </g>
                </g>
                <g transform="matrix(7.08634e-18,-0.11855,0.0877694,4.97517e-18,158.901,308.692)">
                    <g transform="matrix(3.02403,0,0,3.94706,-36.8882,-729.74)">
                        <path d="M39.909,296.91L62.459,296.91L62.459,296.016C57.234,295.81 55.859,294.366 55.859,291.547L55.859,250.297L57.028,250.297C61.428,250.297 64.522,254.697 69.059,265.147L70.228,265.01L69.815,248.991L32.484,248.991L32.072,265.01L33.24,265.147C37.847,254.56 40.94,250.297 45.272,250.297L46.44,250.297L46.44,291.547C46.44,294.366 45.134,295.81 39.909,296.016L39.909,296.91Z" style="fill-rule:nonzero;"/>
                    </g>
                    <g transform="matrix(3.02403,0,0,3.94706,-36.8882,-729.74)">
                        <path d="M73.803,296.91L94.565,296.91L94.565,296.016C90.097,295.81 89.065,294.504 89.065,291.616L89.065,272.779L104.809,272.779L104.809,291.616C104.809,294.504 103.709,295.81 99.309,296.016L99.309,296.91L120.003,296.91L120.003,296.016C115.122,295.81 114.159,294.366 114.159,291.616L114.159,254.285C114.159,251.535 115.122,250.091 120.003,249.885L120.003,248.991L99.309,248.991L99.309,249.885C103.709,250.091 104.809,251.397 104.809,254.285L104.809,271.335L89.065,271.335L89.065,254.285C89.065,251.397 90.097,250.091 94.565,249.885L94.565,248.991L73.803,248.991L73.803,249.885C78.615,250.091 79.647,251.535 79.647,254.285L79.647,291.616C79.647,294.366 78.615,295.81 73.803,296.016L73.803,296.91Z" style="fill-rule:nonzero;"/>
                    </g>
                    <g transform="matrix(3.02403,0,0,3.94706,-36.8882,-729.74)">
                        <path d="M122.89,296.91L159.672,296.91L160.015,279.86L158.847,279.722C154.722,291.066 151.903,295.604 143.172,295.604L138.153,295.604L138.153,272.916L140.147,272.916C144.615,272.916 147.09,274.979 148.878,282.404L149.909,282.404L149.909,262.191L148.878,262.191C147.09,269.547 144.615,271.61 140.147,271.61L138.153,271.61L138.153,250.297L143.515,250.297C150.872,250.297 153.14,254.56 157.403,265.079L158.503,265.01L158.228,248.991L122.89,248.991L122.89,249.885C127.703,250.091 128.734,251.535 128.734,254.285L128.734,291.547C128.734,294.366 127.703,295.81 122.89,296.016L122.89,296.91Z" style="fill-rule:nonzero;"/>
                    </g>
                </g>
            </g>
        </g>
    </g>
</svg>
